<svg xmlns="http://www.w3.org/2000/svg" width="12" height="12" viewBox="0 0 12 12" fill="none"><g id="ri:whatsapp-fill"><path id="Vector" d="M6.0005 1C8.762 1 11.0005 3.2385 11.0005 6C11.0005 8.7615 8.762 11 6.0005 11C5.11688 11.0014 4.24882 10.7676 3.4855 10.3225L1.0025 11L1.6785 8.516C1.23304 7.75244 0.999019 6.884 1.0005 6C1.0005 3.2385 3.239 1 6.0005 1ZM4.2965 3.65L4.1965 3.654C4.13176 3.65794 4.06849 3.67495 4.0105 3.704C3.95626 3.73471 3.90674 3.77311 3.8635 3.818C3.8035 3.8745 3.7695 3.9235 3.733 3.971C3.54806 4.21145 3.44848 4.50666 3.45 4.81C3.451 5.055 3.515 5.2935 3.615 5.5165C3.8195 5.9675 4.156 6.445 4.6 6.8875C4.707 6.994 4.812 7.101 4.925 7.2005C5.47669 7.68623 6.13412 8.03652 6.845 8.2235L7.129 8.267C7.2215 8.272 7.314 8.265 7.407 8.2605C7.55261 8.25298 7.6948 8.21355 7.8235 8.145C7.88897 8.11127 7.95287 8.07457 8.015 8.035C8.015 8.035 8.0365 8.021 8.0775 7.99C8.145 7.94 8.1865 7.9045 8.2425 7.846C8.284 7.803 8.31999 7.7525 8.3475 7.695C8.3865 7.6135 8.4255 7.458 8.44149 7.3285C8.4535 7.2295 8.45 7.1755 8.44849 7.142C8.4465 7.0885 8.402 7.033 8.3535 7.0095L8.0625 6.879C8.0625 6.879 7.62749 6.6895 7.3615 6.5685C7.33366 6.55635 7.30383 6.5494 7.2735 6.548C7.23929 6.54449 7.20472 6.54834 7.17212 6.55929C7.13952 6.57024 7.10964 6.58804 7.0845 6.6115C7.082 6.6105 7.04849 6.639 6.687 7.077C6.66625 7.10488 6.63767 7.12595 6.6049 7.13753C6.57213 7.1491 6.53665 7.15066 6.503 7.142C6.47042 7.13327 6.43851 7.12224 6.4075 7.109C6.3455 7.083 6.324 7.073 6.2815 7.055C5.99453 6.92977 5.72884 6.76057 5.494 6.5535C5.43099 6.4985 5.3725 6.4385 5.3125 6.3805C5.11579 6.19212 4.94436 5.979 4.8025 5.7465L4.77299 5.699C4.75181 5.66708 4.73468 5.63265 4.722 5.5965C4.703 5.523 4.7525 5.464 4.7525 5.464C4.7525 5.464 4.874 5.331 4.9305 5.259C4.9855 5.189 5.03199 5.121 5.062 5.0725C5.121 4.9775 5.1395 4.88 5.1085 4.8045C4.9685 4.4625 4.8235 4.122 4.6745 3.784C4.645 3.717 4.5575 3.669 4.478 3.6595C4.451 3.6565 4.424 3.6535 4.397 3.6515C4.32985 3.64816 4.26256 3.64883 4.1955 3.6535L4.2965 3.65Z" fill="white"></path></g></svg>